# xmcd
#
# Track frame offsets:
# 150
# 19366
# 46252
# 63725
# 82367
# 100048
# 125116
# 145676
# 174936
# 195976
#
# Disc length: 2901 seconds
#
#
# Revision: 0
# Processed by: cddbd v1.5.2PL0 Copyright (c) Steve Scherf et al.
# Submitted via: FreeRIP 2.942 
#
DISCID=8a0b530a
DTITLE=Corey Stevens - Alone at Last
DYEAR=2005
DGENRE=Blues
TTITLE0=Have Another Drink
TTITLE1=Color me a Fool
TTITLE2=Aloha Peke
TTITLE3=One More Time
TTITLE4=Last Temptation
TTITLE5=Goodbye 1969
TTITLE6=Blue Drops of Rain
TTITLE7=Back on You
TTITLE8=Only One for You
TTITLE9=Gone Too Long
EXTD=Solo versions
EXTT0=
EXTT1=
EXTT2=
EXTT3=
EXTT4=
EXTT5=
EXTT6=
EXTT7=
EXTT8=
EXTT9=
PLAYORDER=
